<svg height="512" viewBox="0 0 512 512" width="512" xmlns="http://www.w3.org/2000/svg" xmlns:xlink="http://www.w3.org/1999/xlink"><linearGradient id="a" gradientUnits="userSpaceOnUse" x1="-95.5" x2="449.706" y1="447.5" y2="-97.706" data-name="New Gradient Swatch 1"><stop offset="0" stop-color="#003f8a"/><stop offset=".518" stop-color="#00d7df"/><stop offset="1" stop-color="#006df0"/></linearGradient><linearGradient id="c" x1="-95.499" x2="449.707" xlink:href="#a" y1="447.501" y2="-97.706"/><linearGradient id="d" x1="-1.5" x2="543.706" xlink:href="#a" y1="541.5" y2="-3.707"/><linearGradient id="e" x1="-39.5" x2="505.706" xlink:href="#a" y1="503.5" y2="-41.706"/><linearGradient id="f" x1="134.5" x2="679.706" xlink:href="#a" y1="677.5" y2="132.293"/><linearGradient id="g" x1="96.5" x2="641.706" xlink:href="#a" y1="639.5" y2="94.294"/><linearGradient id="h" x1="-127.5" x2="417.706" xlink:href="#a" y1="415.5" y2="-129.706"/><linearGradient id="i" x1="2.5" x2="547.706" xlink:href="#a" y1="545.5" y2=".294"/><g><path d="m344 96a88 88 0 1 0 -88 88 88.1 88.1 0 0 0 88-88zm-88 72a72 72 0 1 1 72-72 72.081 72.081 0 0 1 -72 72z" fill="url(#a)"/><path d="m256 32a64 64 0 1 0 64 64 64.072 64.072 0 0 0 -64-64zm0 112a48 48 0 1 1 48-48 48.053 48.053 0 0 1 -48 48z" fill="url(#a)"/><path d="m275.578 96.845-11.578-5.789v-19.056a8 8 0 0 0 -16 0v24a8 8 0 0 0 4.422 7.155l16 8a8 8 0 1 0 7.156-14.31z" fill="url(#c)"/><path d="m228.88 345.66-104-80a8.013 8.013 0 0 0 -9.76 0l-104 80a7.991 7.991 0 0 0 -3.12 6.34v136a8 8 0 0 0 8 8h208a8 8 0 0 0 8-8v-136a7.991 7.991 0 0 0 -3.12-6.34zm-60.88 134.34h-96v-8h96zm0-24h-96v-8h96zm0-24h-96v-8h96zm-112-24v-8h128v8zm160 72h-32v-56h8a8 8 0 0 0 8-8v-24a8 8 0 0 0 -8-8h-144a8 8 0 0 0 -8 8v24a8 8 0 0 0 8 8h8v56h-32v-124.06l96-73.85 96 73.85z" fill="url(#d)"/><path d="m88 320a8 8 0 0 0 -8 8v32a8 8 0 0 0 8 8h64a8 8 0 0 0 8-8v-32a8 8 0 0 0 -8-8zm8 16h16v16h-16zm48 16h-16v-16h16z" fill="url(#e)"/><path d="m500.88 345.66-104-80a8.013 8.013 0 0 0 -9.76 0l-104 80a7.991 7.991 0 0 0 -3.12 6.34v136a8 8 0 0 0 8 8h208a8 8 0 0 0 8-8v-136a7.991 7.991 0 0 0 -3.12-6.34zm-60.88 134.34h-96v-8h96zm0-24h-96v-8h96zm0-24h-96v-8h96zm-112-24v-8h128v8zm160 72h-32v-56h8a8 8 0 0 0 8-8v-24a8 8 0 0 0 -8-8h-144a8 8 0 0 0 -8 8v24a8 8 0 0 0 8 8h8v56h-32v-124.06l96-73.85 96 73.85z" fill="url(#f)"/><path d="m360 320a8 8 0 0 0 -8 8v32a8 8 0 0 0 8 8h64a8 8 0 0 0 8-8v-32a8 8 0 0 0 -8-8zm8 16h16v16h-16zm48 16h-16v-16h16z" fill="url(#g)"/><path d="m120 248a8 8 0 0 0 8-8v-136h16a8 8 0 0 0 0-16h-24a8 8 0 0 0 -8 8v144a8 8 0 0 0 8 8z" fill="url(#h)"/><path d="m368 104h16v136a8 8 0 0 0 16 0v-144a8 8 0 0 0 -8-8h-24a8 8 0 0 0 0 16z" fill="url(#i)"/></g></svg>