<svg height="512pt" viewBox="0 -46 512 511" width="512pt" xmlns="http://www.w3.org/2000/svg" xmlns:xlink="http://www.w3.org/1999/xlink"><linearGradient id="a"><stop offset="0" stop-color="#662d91"/><stop offset=".437" stop-color="#3873b3"/><stop offset="1" stop-color="#00c9dd"/></linearGradient><linearGradient id="b" gradientTransform="matrix(.990762 0 0 -.990762 0 471.915815)" gradientUnits="userSpaceOnUse" x1="46.6561" x2="464.4422" xlink:href="#a" y1="489.4455" y2="71.6594"/><linearGradient id="c" gradientTransform="matrix(.990762 0 0 -.990762 0 471.915815)" gradientUnits="userSpaceOnUse" x1="-56.6987" x2="361.0873" xlink:href="#a" y1="386.0907" y2="-31.6955"/><linearGradient id="d" gradientTransform="matrix(.990762 0 0 -.990762 0 471.915815)" gradientUnits="userSpaceOnUse" x1="-108.3761" x2="309.4099" xlink:href="#a" y1="334.4133" y2="-83.3729"/><linearGradient id="e" gradientTransform="matrix(.990762 0 0 -.990762 0 471.915815)" gradientUnits="userSpaceOnUse" x1="38.0481" x2="455.8342" xlink:href="#a" y1="480.8375" y2="63.0514"/><linearGradient id="f" gradientTransform="matrix(.990762 0 0 -.990762 0 471.915815)" gradientUnits="userSpaceOnUse" x1="38.0596" x2="455.8457" xlink:href="#a" y1="480.849" y2="63.0629"/><linearGradient id="g" gradientTransform="matrix(.990762 0 0 -.990762 0 471.915815)" gradientUnits="userSpaceOnUse" x1="44.2378" x2="462.0239" xlink:href="#a" y1="487.0272" y2="69.2411"/><path d="m418.132812 333.300781c-14.136718 0-25.601562 11.460938-25.601562 25.597657 0 14.140624 11.460938 25.601562 25.601562 25.601562 14.140626 0 25.601563-11.460938 25.601563-25.601562 0-14.136719-11.460937-25.597657-25.601563-25.597657zm0 34.132813c-4.710937 0-8.53125-3.820313-8.53125-8.535156 0-4.710938 3.820313-8.53125 8.53125-8.53125 4.714844 0 8.535157 3.820312 8.535157 8.53125 0 4.714843-3.820313 8.535156-8.535157 8.535156zm0 0" fill="url(#b)"/><path d="m238.933594 367.433594c0 9.425781-7.640625 17.066406-17.066406 17.066406-9.425782 0-17.066407-7.640625-17.066407-17.066406 0-9.425782 7.640625-17.066406 17.066407-17.066406 9.425781 0 17.066406 7.640624 17.066406 17.066406zm0 0" fill="url(#c)"/><path d="m136.535156 367.433594c0 9.425781-7.640625 17.066406-17.066406 17.066406s-17.070312-7.640625-17.070312-17.066406c0-9.425782 7.644531-17.066406 17.070312-17.066406s17.066406 7.640624 17.066406 17.066406zm0 0" fill="url(#d)"/><path d="m8.535156 333.300781h25.597656v25.597657c0 4.714843 3.820313 8.535156 8.535157 8.535156h25.597656c-.109375 28.390625 22.816406 51.496094 51.207031 51.605468 28.386719.113282 51.492188-22.8125 51.605469-51.203124.109375-28.390626-22.816406-51.496094-51.203125-51.605469-21.808594-.085938-41.296875 13.597656-48.621094 34.136719h-20.050781v-51.199219h298.664063c4.714843 0 8.535156-3.820313 8.535156-8.535157v-213.332031h104.777344l2.84375 8.53125h-56.421876c-4.714843 0-8.535156 3.820313-8.535156 8.535157v102.398437c.003906 1.6875.5 3.332031 1.433594 4.738281l17.066406 25.597656c1.582032 2.375 4.246094 3.800782 7.101563 3.800782h68.265625v8.53125h-34.132813c-4.714843 0-8.535156 3.820312-8.535156 8.535156v42.664062c0 4.714844 3.820313 8.535157 8.535156 8.535157h34.132813v51.199219h-17.75c-4.683594-32.613282-34.917969-55.253907-67.53125-50.570313-26.210938 3.765625-46.804688 24.359375-50.570313 50.570313h-89.003906c-9.503906-26.550782-38.730469-40.371094-65.285156-30.867188-26.550781 9.503906-40.371094 38.734375-30.867188 65.285156 9.503907 26.550782 38.734375 40.371094 65.285157 30.867188 20.355468-7.285156 33.914062-26.597656 33.855468-48.21875h86.015625c4.683594 32.613281 34.917969 55.253906 67.53125 50.570312 26.210938-3.765625 46.804688-24.359375 50.570313-50.570312h26.28125c4.714844 0 8.535156-3.820313 8.535156-8.535156v-136.53125c-.050781-.441407-.136719-.878907-.265625-1.304688.019531-.300781.019531-.597656 0-.898438l-31.375-117.671874c4.472656-1.308594 7.039063-5.996094 5.734375-10.46875-.035156-.117188-.074219-.238282-.113281-.355469l-8.53125-25.597657c-1.164063-3.492187-4.4375-5.847656-8.117188-5.835937h-110.933593v-51.199219c0-4.714844-3.820313-8.535156-8.53125-8.535156h-324.265626c-4.714843 0-8.535156 3.820312-8.535156 8.535156v273.066406h-8.53125c-4.714844 0-8.535156 3.820313-8.535156 8.53125v34.132813c0 4.714844 3.820312 8.535156 8.535156 8.535156zm110.933594 0c18.847656 0 34.132812 15.28125 34.132812 34.132813 0 18.851562-15.285156 34.132812-34.132812 34.132812-18.851562 0-34.136719-15.28125-34.136719-34.132812 0-18.851563 15.285157-34.132813 34.136719-34.132813zm102.398438 68.265625c-18.851563 0-34.132813-15.28125-34.132813-34.132812 0-18.851563 15.28125-34.132813 34.132813-34.132813 18.851562 0 34.132812 15.28125 34.132812 34.132813 0 18.851562-15.28125 34.132812-34.132812 34.132812zm196.265624 0c-23.5625 0-42.667968-19.101562-42.667968-42.667968 0-23.5625 19.105468-42.664063 42.667968-42.664063 23.566407 0 42.667969 19.101563 42.667969 42.664063-.027343 23.554687-19.113281 42.640624-42.667969 42.667968zm51.199219-119.464844v-25.601562h25.601563v25.601562zm-38.101562-68.269531-13.097657-19.625v-91.308593h44.636719l29.601563 110.933593zm-397.097657-196.265625h307.203126v264.535156h-307.203126zm-17.066406 281.601563h17.066406v17.066406h-17.066406zm0 0" fill="url(#e)"/><path d="m192 247.964844c54.199219 0 98.132812-43.933594 98.132812-98.132813 0-54.195312-43.933593-98.132812-98.132812-98.132812s-98.132812 43.9375-98.132812 98.132812c.0625 54.171875 43.960937 98.074219 98.132812 98.132813zm-8.535156-178.738282v7.296876c0 4.710937 3.820312 8.53125 8.535156 8.53125 4.710938 0 8.53125-3.820313 8.53125-8.53125v-7.296876c37.988281 4.078126 67.996094 34.085938 72.074219 72.074219h-7.296875c-4.710938 0-8.53125 3.820313-8.53125 8.53125 0 4.714844 3.820312 8.535157 8.53125 8.535157h7.296875c-4.078125 37.988281-34.085938 67.996093-72.074219 72.074218v-7.296875c0-4.714843-3.820312-8.535156-8.53125-8.535156-4.714844 0-8.535156 3.820313-8.535156 8.535156v7.296875c-37.984375-4.078125-67.992188-34.085937-72.070313-72.074218h7.292969c4.714844 0 8.535156-3.820313 8.535156-8.535157 0-4.710937-3.820312-8.53125-8.535156-8.53125h-7.292969c4.078125-37.988281 34.085938-67.996093 72.070313-72.074219zm0 0" fill="url(#f)"/><path d="m183.722656 151.898438c.601563 2.421874 2.234375 4.457031 4.464844 5.570312l48.867188 24.433594c4.21875 2.109375 9.34375.402344 11.453124-3.816406 2.109376-4.214844.402344-9.339844-3.8125-11.449219l-45.371093-22.675781-7.1875-28.78125c-1.0625-4.589844-5.648438-7.449219-10.238281-6.386719-4.59375 1.066406-7.449219 5.652343-6.386719 10.242187.023437.09375.046875.1875.070312.28125zm0 0" fill="url(#g)"/></svg>